<?xml version="1.0" encoding="utf-8"?>
<!-- Generator: Adobe Illustrator 25.2.1, SVG Export Plug-In . SVG Version: 6.00 Build 0)  -->
<svg version="1.1" xmlns="http://www.w3.org/2000/svg" xmlns:xlink="http://www.w3.org/1999/xlink" x="0px" y="0px"
	 viewBox="0 0 419.5 297.6" style="enable-background:new 0 0 419.5 297.6;" xml:space="preserve">
<style type="text/css">
	.st0{fill:none;stroke:#0A7A72;stroke-width:3.3747;stroke-miterlimit:10;}
	.st1{fill:#0A7A72;}
	.st2{fill:none;}
	.st3{fill:#11A395;}
	.st4{fill:#FFFFFF;stroke:#FFFFFF;stroke-width:3.3747;stroke-miterlimit:10;}
	.st5{fill:#FFFFFF;}
	.st6{font-family:'GeorgeRoundedLight';}
	.st7{font-size:36px;}
	.st8{font-family:'GeorgeRoundedSemibold';}
	.st9{fill:#17A7C9;}
	.st10{fill:none;stroke:#FFFFFF;stroke-width:3.3747;stroke-miterlimit:10;}
</style>
<g id="Logo_7">
	<g id="Background_6_">
	</g>
	<g id="Graphic_Elements_6_">
	</g>
	<g id="_x5B_Your_Text_Here_x5D__6_">
	</g>
</g>
<g id="Logo_6">
	<g id="Background_5_">
	</g>
	<g id="Graphic_Elements_5_">
	</g>
	<g id="_x5B_Your_Text_Here_x5D__5_">
	</g>
</g>
<g id="Logo_5">
	<g id="Background_4_">
	</g>
	<g id="Graphic_Elements_4_">
	</g>
	<g id="_x5B_Your_Text_Here_x5D__4_">
	</g>
</g>
<g id="Logo_4">
	<g id="Background_3_">
	</g>
	<g id="Graphic_Elements_3_">
	</g>
	<g id="_x5B_Your_Text_Here_x5D_">
	</g>
</g>
<g id="Logo_3">
	<g id="Background_2_">
	</g>
	<g id="Graphic_Elements_2_">
	</g>
	<g id="_x5B_Your_Text_Here_x5D__1_">
	</g>
</g>
<g id="Logo_2">
	<g id="Background_1_">
	</g>
	<g id="Graphic_Elements_1_">
	</g>
	<g id="_x5B_Your_Text_Here_x5D__2_">
	</g>
</g>
<g id="Logo_1">
	<g id="Background">
	</g>
	<g id="Graphic_Elements">
	</g>
	<g id="_x5B_Your_Text_Here_x5D__3_">
	</g>
	<g>
		<g>
			<path class="st0" d="M127.8,466.8c-0.3,1.1-0.8,2.1-1.6,3c-0.7,0.8-1.6,1.4-2.7,1.8c-0.5,0.2-1,0.4-1.5,0.5
				c-0.7,0.2-1.3,0.2-2,0.3c-0.7,0-1.4,0-2.1,0c-0.5,0-0.9-0.1-1.4-0.2c-0.7-0.1-1.5-0.2-2.2-0.3c-0.8-0.1-1.5,0-2.3,0.2
				c-0.7,0.2-1.4,0.3-2,0.6c-1.9,0.8-3.3,2.3-4.3,4.1c-0.6,1.1-1.1,2.4-1.4,3.7c-0.1,0.6-0.1,0.6-0.8,0.6c-0.1,0-0.3,0-0.4,0
				c-0.2,0-0.2-0.1-0.3-0.2c-0.3-0.9-0.5-1.7-0.8-2.6c-0.4-1.3-1.1-2.4-2-3.4c-0.9-1-1.9-1.8-3.2-2.2c-1.1-0.4-2.2-0.6-3.3-0.7
				c-0.1,0-0.2,0-0.3,0c-0.9,0-1.8,0.2-2.7,0.3c-0.8,0.1-1.6,0.1-2.4,0.2c-0.6,0-1.2-0.1-1.7-0.1c-0.9,0-1.8-0.3-2.7-0.6
				c-1.4-0.5-2.5-1.4-3.4-2.7c-0.9-1.2-1.1-2.7-1.2-4.2c0-0.6,0.1-1.1,0.2-1.7c0.2-1.2,0.8-2.3,1.6-3.3c0.8-0.9,1.8-1.6,3-2
				c0.6-0.2,1.2-0.4,1.9-0.5c0.7-0.1,1.3-0.2,2-0.2c0.4,0,0.8,0,1.2,0.1c0.5,0.1,1,0.1,1.5,0.3c0.8,0.3,1.5,0.6,2.2,1
				c0.2,0.1,0.4,0.2,0.5,0.3c0.6,0.4,1.1,0.8,1.6,1.2c0.6,0.5,1,1.1,1.5,1.6c1.1,1.2,2,2.6,2.8,4c1.4,2.5,2.6,5.2,3.2,8
				c0.3,1.1,0.5,2.3,0.7,3.5c0.1,0.3,0.1,0.6,0.1,0.8c0,0.1,0.2,0.2,0.3,0.3c0.1-0.1,0.2-0.1,0.2-0.2c0.1-0.4,0.2-0.8,0.2-1.2
				c0.1-0.5,0.1-1.1,0.3-1.6c0.2-0.9,0.4-1.7,0.7-2.6c0.4-1.1,0.7-2.3,1.2-3.4c0.4-1.1,1-2.1,1.5-3.1c0.7-1.3,1.4-2.5,2.3-3.6
				c0.9-1.1,1.9-2.2,3.1-3.1c0.1-0.1,0.3-0.2,0.5-0.3c0.8-0.6,1.7-1.1,2.6-1.3c0.5-0.2,1.1-0.3,1.7-0.4c0.7-0.1,1.3-0.2,2-0.2
				c0.1,0,0.2,0,0.3,0c0.4,0,0.9,0.1,1.3,0.2c0.9,0.1,1.8,0.4,2.6,0.8c0,0,0,0,0,0c1.3,0.6,2.3,1.6,3,2.8c0.5,0.8,0.8,1.7,0.9,2.7
				C128,464.7,128,465.8,127.8,466.8z"/>
		</g>
		<g>
			<path class="st1" d="M116,443.8c-0.1-0.4-0.2-0.8-0.4-1.2c-1.7-4.5-7.1-6.8-11.7-4.3c-0.4,0.2-0.7,0.2-1,0
				c-1.7-0.8-3.4-1.2-5.3-1c-2,0.3-3.7,1.3-5,2.8c-1.5,1.7-2.3,4-2,6.3c0.2,1.8,1,3.3,2,4.8c0.2,0.3,0.4,0.5,0.6,0.8
				c2.5,3,5.5,5.3,8.7,7.4c1,0.7,1.9,0.6,2.9,0c2.6-1.7,4.9-3.7,7-5.9c0.9-0.9,1.7-1.8,2.6-2.7c1.3-1.5,1.8-3.3,1.8-5.5
				C116.2,445,116.1,444.4,116,443.8z M96.5,449.5c-1.6-0.7-2.5-4-1.6-5.8c1-2.1,3.4-3,4.9-2.3C97.7,443.7,96.6,446.4,96.5,449.5z
				 M103.9,455.2c-0.4,0.4-0.6,0.3-1,0c-2.9-2.7-3.3-7.4-0.7-10.5c0.4-0.4,0.8-0.8,1.2-1.3C107.1,446.4,107.3,452.1,103.9,455.2z
				 M110.3,449.4c-0.1-3.1-1.2-5.8-3.4-8.1c1.9-0.6,4.1,0.5,5,2.3C112.8,445.6,112.2,448,110.3,449.4z"/>
			<path class="st2" d="M110.3,449.4c-0.1-3.1-1.2-5.8-3.4-8.1c1.9-0.6,4.1,0.5,5,2.3C112.8,445.6,112.2,448,110.3,449.4z"/>
			<path class="st2" d="M103.9,455.2c-0.4,0.4-0.6,0.3-1,0c-2.9-2.7-3.3-7.4-0.7-10.5c0.4-0.4,0.8-0.8,1.2-1.3
				C107.1,446.4,107.3,452.1,103.9,455.2z"/>
			<path class="st2" d="M99.8,441.4c-2.1,2.3-3.2,5-3.2,8.1c-1.6-0.7-2.5-4-1.6-5.8C95.9,441.6,98.3,440.6,99.8,441.4z"/>
		</g>
		<rect x="138.5" y="454.1" class="st2" width="201.6" height="75.1"/>
		<text transform="matrix(1 0 0 1 138.4634 480.6191)" class="st1 st8 st7">biozdrave</text>
	</g>
	<path class="st3" d="M0,0v298h420V0H0z M123.5,134.8c1.3-1.5,3-2.5,5-2.8c1.9-0.3,3.6,0.2,5.3,1c0.4,0.2,0.7,0.2,1,0
		c4.7-2.4,10-0.2,11.7,4.3c0.2,0.4,0.3,0.8,0.4,1.2c0.1,0.6,0.2,1.2,0.2,1.5c0,2.2-0.5,4-1.8,5.5c-0.8,0.9-1.7,1.8-2.5,2.7
		c-2.1,2.2-4.4,4.2-7,5.9c-1,0.6-1.9,0.7-2.9,0c-3.2-2.1-6.3-4.4-8.7-7.4c-0.2-0.3-0.4-0.5-0.6-0.8c-1-1.4-1.8-3-2-4.8
		C121.2,138.8,122,136.5,123.5,134.8z M158.6,161.5c-0.3,1.1-0.8,2.1-1.6,3c-0.8,0.8-1.6,1.4-2.7,1.9c-0.5,0.2-1,0.3-1.5,0.5
		c-0.7,0.2-1.3,0.2-2,0.3c-0.7,0-1.4,0-2.1,0c-0.5,0-0.9-0.1-1.4-0.2c-0.8-0.1-1.5-0.2-2.2-0.3c-0.8-0.1-1.5,0-2.3,0.2
		c-0.7,0.2-1.4,0.3-2,0.6c-1.9,0.8-3.3,2.3-4.2,4.1c-0.6,1.1-1.1,2.4-1.4,3.7c-0.1,0.6-0.1,0.6-0.8,0.6c-0.1,0-0.3,0-0.4,0
		c-0.2,0-0.2-0.1-0.3-0.2c-0.3-0.9-0.5-1.7-0.8-2.6c-0.4-1.3-1.1-2.4-2-3.4c-0.9-1-1.9-1.8-3.2-2.2c-1.1-0.4-2.2-0.6-3.3-0.7
		c-0.1,0-0.2,0-0.3,0c-0.9,0-1.8,0.2-2.7,0.3c-0.8,0.1-1.6,0.2-2.4,0.2c-0.6,0-1.2-0.1-1.7-0.2c-0.9,0-1.8-0.3-2.7-0.6
		c-1.4-0.5-2.5-1.4-3.4-2.7c-0.9-1.2-1.1-2.7-1.2-4.2c0-0.6,0.1-1.1,0.2-1.7c0.2-1.2,0.8-2.3,1.6-3.3c0.8-0.9,1.8-1.6,3-2
		c0.6-0.2,1.2-0.4,1.9-0.5c0.7-0.1,1.3-0.2,2-0.2c0.4,0,0.8,0,1.2,0.1c0.5,0.1,1,0.1,1.5,0.3c0.8,0.3,1.5,0.6,2.2,1
		c0.2,0.1,0.3,0.2,0.5,0.3c0.6,0.4,1.1,0.8,1.6,1.2c0.6,0.5,1,1.1,1.5,1.6c1.1,1.2,2,2.6,2.8,4c1.4,2.5,2.5,5.2,3.2,8
		c0.3,1.1,0.5,2.3,0.7,3.4c0,0.3,0.1,0.6,0.1,0.9c0,0.1,0.2,0.2,0.3,0.3c0.1-0.1,0.2-0.2,0.2-0.2c0.1-0.4,0.2-0.8,0.2-1.2
		c0.1-0.5,0.1-1.1,0.3-1.6c0.2-0.9,0.4-1.7,0.7-2.6c0.4-1.1,0.7-2.3,1.2-3.4c0.4-1.1,1-2.1,1.5-3.1c0.7-1.3,1.4-2.5,2.3-3.6
		c0.9-1.1,1.9-2.2,3.1-3.1c0.1-0.1,0.3-0.2,0.5-0.3c0.8-0.5,1.7-1,2.6-1.3c0.5-0.2,1.1-0.3,1.7-0.4c0.7-0.1,1.3-0.2,2-0.2
		c0.1,0,0.2,0,0.2,0c0.5,0,0.9,0.2,1.3,0.2c0.9,0.1,1.8,0.4,2.6,0.8c0,0,0,0,0,0c1.3,0.6,2.3,1.6,3,2.8c0.5,0.8,0.8,1.7,0.9,2.6
		C158.9,159.4,158.8,160.4,158.6,161.5z"/>
	<g>
		<path class="st4" d="M158.6,161.5c-0.3,1.1-0.8,2.1-1.6,3c-0.8,0.8-1.6,1.4-2.7,1.9c-0.5,0.2-1,0.3-1.5,0.5
			c-0.7,0.2-1.3,0.2-2,0.3c-0.7,0-1.4,0-2.1,0c-0.5,0-0.9-0.1-1.4-0.2c-0.8-0.1-1.5-0.2-2.2-0.3c-0.8-0.1-1.5,0-2.3,0.2
			c-0.7,0.2-1.4,0.3-2,0.6c-1.9,0.8-3.3,2.3-4.2,4.1c-0.6,1.1-1.1,2.4-1.4,3.7c-0.1,0.6-0.1,0.6-0.8,0.6c-0.1,0-0.3,0-0.4,0
			c-0.2,0-0.2-0.1-0.3-0.2c-0.3-0.9-0.5-1.7-0.8-2.6c-0.4-1.3-1.1-2.4-2-3.4c-0.9-1-1.9-1.8-3.2-2.2c-1.1-0.4-2.2-0.6-3.3-0.7
			c-0.1,0-0.2,0-0.3,0c-0.9,0-1.8,0.2-2.7,0.3c-0.8,0.1-1.6,0.2-2.4,0.2c-0.6,0-1.2-0.1-1.7-0.2c-0.9,0-1.8-0.3-2.7-0.6
			c-1.4-0.5-2.5-1.4-3.4-2.7c-0.9-1.2-1.1-2.7-1.2-4.2c0-0.6,0.1-1.1,0.2-1.7c0.2-1.2,0.8-2.3,1.6-3.3c0.8-0.9,1.8-1.6,3-2
			c0.6-0.2,1.2-0.4,1.9-0.5c0.7-0.1,1.3-0.2,2-0.2c0.4,0,0.8,0,1.2,0.1c0.5,0.1,1,0.1,1.5,0.3c0.8,0.3,1.5,0.6,2.2,1
			c0.2,0.1,0.3,0.2,0.5,0.3c0.6,0.4,1.1,0.8,1.6,1.2c0.6,0.5,1,1.1,1.5,1.6c1.1,1.2,2,2.6,2.8,4c1.4,2.5,2.5,5.2,3.2,8
			c0.3,1.1,0.5,2.3,0.7,3.4c0,0.3,0.1,0.6,0.1,0.9c0,0.1,0.2,0.2,0.3,0.3c0.1-0.1,0.2-0.2,0.2-0.2c0.1-0.4,0.2-0.8,0.2-1.2
			c0.1-0.5,0.1-1.1,0.3-1.6c0.2-0.9,0.4-1.7,0.7-2.6c0.4-1.1,0.7-2.3,1.2-3.4c0.4-1.1,1-2.1,1.5-3.1c0.7-1.3,1.4-2.5,2.3-3.6
			c0.9-1.1,1.9-2.2,3.1-3.1c0.1-0.1,0.3-0.2,0.5-0.3c0.8-0.5,1.7-1,2.6-1.3c0.5-0.2,1.1-0.3,1.7-0.4c0.7-0.1,1.3-0.2,2-0.2
			c0.1,0,0.2,0,0.2,0c0.5,0,0.9,0.2,1.3,0.2c0.9,0.1,1.8,0.4,2.6,0.8c0,0,0,0,0,0c1.3,0.6,2.3,1.6,3,2.8c0.5,0.8,0.8,1.7,0.9,2.6
			C158.9,159.4,158.8,160.4,158.6,161.5z"/>
	</g>
	<g>
		<path class="st5" d="M141.1,144.1c-0.1-3.1-1.2-5.8-3.4-8.1c1.9-0.6,4.1,0.5,5,2.3C143.7,140.3,143,142.6,141.1,144.1z"/>
		<path class="st5" d="M146.8,138.5c-0.1-0.4-0.2-0.8-0.4-1.2c-1.7-4.5-7-6.8-11.7-4.3c-0.4,0.2-0.7,0.2-1,0c-1.7-0.8-3.4-1.2-5.3-1
			c-2,0.3-3.7,1.3-5,2.8c-1.5,1.7-2.3,4-2,6.3c0.2,1.8,1,3.3,2,4.8c0.2,0.3,0.4,0.5,0.6,0.8c2.5,3,5.5,5.3,8.7,7.4
			c1,0.7,1.9,0.7,2.9,0c2.6-1.7,4.9-3.7,7-5.9c0.9-0.9,1.7-1.8,2.5-2.7c1.3-1.5,1.8-3.3,1.8-5.5C147,139.6,147,139,146.8,138.5z
			 M141.1,144.1c-0.1-3.1-1.2-5.8-3.4-8.1c1.9-0.6,4.1,0.5,5,2.3C143.7,140.3,143,142.6,141.1,144.1z"/>
	</g>
	<rect x="169.3" y="148.7" class="st2" width="201.6" height="75.1"/>
	<text transform="matrix(1 0 0 1 169.2884 175.2801)"><tspan x="0" y="0" class="st5 st6 st7">bio</tspan><tspan x="47.2" y="0" class="st5 st8 st7">zdrave</tspan></text>
	<rect x="439.6" y="-0.6" class="st9" width="420" height="298"/>
	<g>
		<path class="st10" d="M584.1,166.2c-0.3,1.1-0.8,2.1-1.6,3c-0.7,0.8-1.6,1.4-2.7,1.8c-0.5,0.2-1,0.4-1.5,0.5
			c-0.7,0.2-1.3,0.2-2,0.3c-0.7,0-1.4,0-2.1,0c-0.5,0-0.9-0.1-1.4-0.2c-0.7-0.1-1.5-0.2-2.2-0.3c-0.8-0.1-1.5,0-2.3,0.2
			c-0.7,0.2-1.4,0.3-2,0.6c-1.9,0.8-3.3,2.3-4.3,4.1c-0.6,1.1-1.1,2.4-1.4,3.7c-0.1,0.6-0.1,0.6-0.8,0.6c-0.1,0-0.3,0-0.4,0
			c-0.2,0-0.2-0.1-0.3-0.2c-0.3-0.9-0.5-1.7-0.8-2.6c-0.4-1.3-1.1-2.4-2-3.4c-0.9-1-1.9-1.8-3.2-2.2c-1.1-0.4-2.2-0.6-3.3-0.7
			c-0.1,0-0.2,0-0.3,0c-0.9,0-1.8,0.2-2.7,0.3c-0.8,0.1-1.6,0.1-2.4,0.2c-0.6,0-1.2-0.1-1.7-0.1c-0.9,0-1.8-0.3-2.7-0.6
			c-1.4-0.5-2.5-1.4-3.4-2.7c-0.9-1.2-1.1-2.7-1.2-4.2c0-0.6,0.1-1.1,0.2-1.7c0.2-1.2,0.8-2.3,1.6-3.3c0.8-0.9,1.8-1.6,3-2
			c0.6-0.2,1.2-0.4,1.9-0.5c0.7-0.1,1.3-0.2,2-0.2c0.4,0,0.8,0,1.2,0.1c0.5,0.1,1,0.1,1.5,0.3c0.8,0.3,1.5,0.6,2.2,1
			c0.2,0.1,0.4,0.2,0.5,0.3c0.6,0.4,1.1,0.8,1.6,1.2c0.6,0.5,1,1.1,1.5,1.6c1.1,1.2,2,2.6,2.8,4c1.4,2.5,2.6,5.2,3.2,8
			c0.3,1.1,0.5,2.3,0.7,3.5c0.1,0.3,0.1,0.6,0.1,0.8c0,0.1,0.2,0.2,0.3,0.3c0.1-0.1,0.2-0.1,0.2-0.2c0.1-0.4,0.2-0.8,0.2-1.2
			c0.1-0.5,0.1-1.1,0.3-1.6c0.2-0.9,0.4-1.7,0.7-2.6c0.4-1.1,0.7-2.3,1.2-3.4c0.4-1.1,1-2.1,1.5-3.1c0.7-1.3,1.4-2.5,2.3-3.6
			c0.9-1.1,1.9-2.2,3.1-3.1c0.1-0.1,0.3-0.2,0.5-0.3c0.8-0.6,1.7-1.1,2.6-1.3c0.5-0.2,1.1-0.3,1.7-0.4c0.7-0.1,1.3-0.2,2-0.2
			c0.1,0,0.2,0,0.3,0c0.4,0,0.9,0.1,1.3,0.2c0.9,0.1,1.8,0.4,2.6,0.8c0,0,0,0,0,0c1.3,0.6,2.3,1.6,3,2.8c0.5,0.8,0.8,1.7,0.9,2.7
			C584.4,164.1,584.4,165.2,584.1,166.2z"/>
	</g>
	<g>
		<path class="st5" d="M572.3,143.2c-0.1-0.4-0.2-0.8-0.4-1.2c-1.7-4.5-7.1-6.8-11.7-4.3c-0.4,0.2-0.7,0.2-1,0
			c-1.7-0.8-3.4-1.2-5.3-1c-2,0.3-3.7,1.3-5,2.8c-1.5,1.7-2.3,4-2,6.3c0.2,1.8,1,3.3,2,4.8c0.2,0.3,0.4,0.5,0.6,0.8
			c2.5,3,5.5,5.3,8.7,7.4c1,0.7,1.9,0.6,2.9,0c2.6-1.7,4.9-3.7,7-5.9c0.9-0.9,1.7-1.8,2.6-2.7c1.3-1.5,1.8-3.3,1.8-5.5
			C572.5,144.4,572.5,143.8,572.3,143.2z M552.9,148.9c-1.6-0.7-2.5-4-1.6-5.8c1-2.1,3.4-3,4.9-2.3
			C554,143.1,552.9,145.8,552.9,148.9z M560.2,154.6c-0.4,0.4-0.6,0.3-1,0c-2.9-2.7-3.3-7.4-0.7-10.5c0.4-0.4,0.8-0.8,1.2-1.3
			C563.4,145.8,563.6,151.5,560.2,154.6z M566.6,148.8c-0.1-3.1-1.2-5.8-3.4-8.1c1.9-0.6,4.1,0.5,5,2.3
			C569.2,145,568.5,147.3,566.6,148.8z"/>
		<path class="st2" d="M566.6,148.8c-0.1-3.1-1.2-5.8-3.4-8.1c1.9-0.6,4.1,0.5,5,2.3C569.2,145,568.5,147.3,566.6,148.8z"/>
		<path class="st2" d="M560.2,154.6c-0.4,0.4-0.6,0.3-1,0c-2.9-2.7-3.3-7.4-0.7-10.5c0.4-0.4,0.8-0.8,1.2-1.3
			C563.4,145.8,563.6,151.5,560.2,154.6z"/>
		<path class="st2" d="M556.1,140.8c-2.1,2.3-3.2,5-3.2,8.1c-1.6-0.7-2.5-4-1.6-5.8C552.2,141,554.6,140,556.1,140.8z"/>
	</g>
	<rect x="594.8" y="153.4" class="st2" width="201.6" height="75.1"/>
	<text transform="matrix(1 0 0 1 594.7927 180.0114)"><tspan x="0" y="0" class="st5 st6 st7">bio</tspan><tspan x="47.2" y="0" class="st5 st8 st7">zdrave</tspan></text>
</g>
</svg>
