<svg xmlns="http://www.w3.org/2000/svg" viewBox="0 0 194.47 40.99"><defs><style>.cls-1,.cls-3{fill:none;}.cls-1{stroke:#0d7b73;stroke-miterlimit:10;stroke-width:3.04px;}.cls-2{fill:#0d7b73;}</style></defs><g id="Tshirt_Thumbnail" data-name="Tshirt Thumbnail"><path class="cls-1" d="M55.66,35.85a6,6,0,0,1-1.43,2.68,6.63,6.63,0,0,1-2.41,1.66,7.89,7.89,0,0,1-1.33.42,10.09,10.09,0,0,1-1.83.26c-.61,0-1.24,0-1.86,0-.4,0-.82-.08-1.23-.14-.67-.09-1.34-.22-2-.28a6.2,6.2,0,0,0-2.06.19,12.26,12.26,0,0,0-1.82.52,8,8,0,0,0-3.83,3.67,12.79,12.79,0,0,0-1.23,3.29c-.13.53-.13.53-.69.53h-.36c-.15,0-.22,0-.27-.21-.23-.78-.47-1.56-.75-2.33a9.39,9.39,0,0,0-1.81-3.06,7.34,7.34,0,0,0-2.87-2,9.74,9.74,0,0,0-3-.59h-.29a12.78,12.78,0,0,0-2.39.28c-.71.12-1.45.13-2.19.19-.52,0-1-.11-1.56-.13a8.5,8.5,0,0,1-2.4-.57A6.48,6.48,0,0,1,13,37.8a7,7,0,0,1-1.1-3.75,7.88,7.88,0,0,1,.18-1.52,5.71,5.71,0,0,1,1.47-3,6.3,6.3,0,0,1,2.7-1.81A14,14,0,0,1,18,27.32a15.82,15.82,0,0,1,1.81-.17,5.16,5.16,0,0,1,1,.09,6.87,6.87,0,0,1,1.35.27,12.58,12.58,0,0,1,2,.86l.48.3a14.11,14.11,0,0,1,1.46,1.08,16.91,16.91,0,0,1,1.37,1.44A16.85,16.85,0,0,1,30,34.78,27.63,27.63,0,0,1,32.87,42c.26,1,.45,2.08.67,3.12.05.24.05.51.12.76,0,.1.15.18.24.27.07-.07.2-.14.22-.23.08-.35.14-.71.2-1.07s.13-1,.25-1.44c.19-.79.39-1.57.63-2.33.33-1,.66-2,1.06-3s.9-1.87,1.36-2.78A19.69,19.69,0,0,1,39.68,32a15.69,15.69,0,0,1,2.75-2.83l.42-.3a8,8,0,0,1,2.35-1.19,10.44,10.44,0,0,1,1.49-.36,12.18,12.18,0,0,1,1.81-.17h.23c.4,0,.81.14,1.21.18a6.66,6.66,0,0,1,2.35.74h0a6.57,6.57,0,0,1,2.75,2.55A5.52,5.52,0,0,1,55.82,33,8.22,8.22,0,0,1,55.66,35.85Z" transform="translate(-10.39 -9.18)"/><path class="cls-2" d="M45.08,15.1a10,10,0,0,0-.33-1.1,7.51,7.51,0,0,0-10.56-3.9.91.91,0,0,1-.94,0,8.07,8.07,0,0,0-4.76-.88A7.37,7.37,0,0,0,24,11.8a7.42,7.42,0,0,0-1.8,5.66A8.94,8.94,0,0,0,24,21.74c.17.24.36.48.55.71a35,35,0,0,0,7.87,6.68,2.07,2.07,0,0,0,2.57,0,36.46,36.46,0,0,0,6.32-5.27c.8-.8,1.56-1.63,2.3-2.47a7.36,7.36,0,0,0,1.65-5C45.23,16.16,45.19,15.63,45.08,15.1ZM27.52,20.25c-1.47-.68-2.25-3.57-1.46-5.25.88-1.85,3.05-2.73,4.37-2.08A11,11,0,0,0,27.52,20.25Zm6.63,5.1c-.35.32-.56.3-.89,0a7,7,0,0,1-.68-9.48c.33-.4.69-.76,1.05-1.16A7.05,7.05,0,0,1,34.15,25.35Zm5.75-5.19a10.74,10.74,0,0,0-3-7.27,3.87,3.87,0,0,1,4.46,2A4.15,4.15,0,0,1,39.9,20.16Z" transform="translate(-10.39 -9.18)"/><path class="cls-3" d="M39.9,20.16a10.74,10.74,0,0,0-3-7.27,3.87,3.87,0,0,1,4.46,2A4.15,4.15,0,0,1,39.9,20.16Z" transform="translate(-10.39 -9.18)"/><path class="cls-3" d="M34.15,25.35c-.35.32-.56.3-.89,0a7,7,0,0,1-.68-9.48c.33-.4.69-.76,1.05-1.16A7.05,7.05,0,0,1,34.15,25.35Z" transform="translate(-10.39 -9.18)"/><path class="cls-3" d="M30.43,12.92a11,11,0,0,0-2.91,7.33c-1.47-.68-2.25-3.57-1.46-5.25C26.94,13.15,29.11,12.27,30.43,12.92Z" transform="translate(-10.39 -9.18)"/><path class="cls-2" d="M81.15,41.14a6.93,6.93,0,0,1-6.71,6.61,6.67,6.67,0,0,1-3-.61A6.84,6.84,0,0,1,69,45.29v2a1.19,1.19,0,0,1-.17.63,1.25,1.25,0,0,1-.47.47,1.31,1.31,0,0,1-.65.16.34.34,0,0,1-.25-.11.35.35,0,0,1-.11-.24V25.09a.37.37,0,0,1,.11-.27.35.35,0,0,1,.25-.12h.91a.36.36,0,0,1,.27.12.33.33,0,0,1,.11.27V36.44A6.61,6.61,0,0,1,74.28,34a6.68,6.68,0,0,1,5,2.11A6.56,6.56,0,0,1,81.15,41.14ZM79.43,40A5,5,0,0,0,78,37.15,5.26,5.26,0,0,0,72.35,36a5,5,0,0,0-2.16,1.6,6.1,6.1,0,0,0-1.1,2.5,4.86,4.86,0,0,0,.39,3,4.51,4.51,0,0,0,2.59,2.6,5,5,0,0,0,3,.4A5.84,5.84,0,0,0,77.55,45a4.9,4.9,0,0,0,1.61-2.18A5.19,5.19,0,0,0,79.43,40Z" transform="translate(-10.39 -9.18)"/><path class="cls-2" d="M87.31,29.48a1.12,1.12,0,0,1,.32.8,1.06,1.06,0,0,1-.32.78,1.1,1.1,0,0,1-1.88-.78,1.16,1.16,0,0,1,.32-.8,1.06,1.06,0,0,1,1.56,0Zm0,4.23V48.14a.44.44,0,0,1-.11.29.39.39,0,0,1-.31.13h-.81a.35.35,0,0,1-.28-.13.44.44,0,0,1-.11-.29V33.71a.48.48,0,0,1,.11-.29.39.39,0,0,1,.28-.13h.81a.42.42,0,0,1,.31.13A.48.48,0,0,1,87.34,33.71Z" transform="translate(-10.39 -9.18)"/><path class="cls-2" d="M103.67,45.74a6.93,6.93,0,0,1-9.76,0A6.9,6.9,0,0,1,98.79,34a6.76,6.76,0,0,1,3.47.93,6.87,6.87,0,0,1,2.51,2.51,6.75,6.75,0,0,1,.92,3.47A6.59,6.59,0,0,1,103.67,45.74Zm-1.17-8.57A5.2,5.2,0,1,0,104,40.86,5.06,5.06,0,0,0,102.5,37.17Z" transform="translate(-10.39 -9.18)"/><path class="cls-2" d="M113.12,33l9.2,0a.37.37,0,0,1,.36.16c.07.11,0,.24-.06.39L116.36,43.7a.4.4,0,0,0-.07.42.43.43,0,0,0,.39.17h4.54a.63.63,0,0,1,.46.19.61.61,0,0,1,.19.45v2.56a.66.66,0,0,1-.32.59.7.7,0,0,1-.33.1l-11.67,0a.41.41,0,0,1-.36-.16.42.42,0,0,1,.07-.43l6.26-10.21c.1-.15.13-.28.06-.39a.37.37,0,0,0-.36-.16h-4.76a.57.57,0,0,1-.34-.1.82.82,0,0,1-.25-.24.59.59,0,0,1-.09-.31V33.65a.67.67,0,0,1,.19-.49.66.66,0,0,1,.49-.19h2.66Z" transform="translate(-10.39 -9.18)"/><path class="cls-2" d="M125.37,40.43a7.92,7.92,0,0,1,2-5.21,8,8,0,0,1,4.88-2.77,7.7,7.7,0,0,1,5.28,1V25.16a.81.81,0,0,1,.23-.59.74.74,0,0,1,.55-.22h2.63a.77.77,0,0,1,.55.22.8.8,0,0,1,.22.59V47.43a.74.74,0,0,1-.22.55.78.78,0,0,1-.55.23h-1.72a1.67,1.67,0,0,1-1.69-1.69,6.33,6.33,0,0,1-4.86,2.11,6.81,6.81,0,0,1-5.08-2.43A8.1,8.1,0,0,1,125.37,40.43Zm5.35-2.73a4,4,0,1,0,2.82-1.16A3.84,3.84,0,0,0,130.72,37.7Z" transform="translate(-10.39 -9.18)"/><path class="cls-2" d="M149.56,34.07a5.33,5.33,0,0,1,3.27-1.68,6,6,0,0,1,.91.06.77.77,0,0,1,.42.26.67.67,0,0,1,.16.45V36a.75.75,0,0,1-.27.59.63.63,0,0,1-.6.13,2.88,2.88,0,0,0-1.23-.13,2.7,2.7,0,0,0-1.9,1,3,3,0,0,0-.76,2v7.88a.79.79,0,0,1-.78.78h-2.63a.76.76,0,0,1-.55-.23.74.74,0,0,1-.22-.55V33.49a.74.74,0,0,1,.22-.55.76.76,0,0,1,.55-.23h2.63a.79.79,0,0,1,.78.78Z" transform="translate(-10.39 -9.18)"/><path class="cls-2" d="M163.14,32.32a6.64,6.64,0,0,1,4.91,2,6.73,6.73,0,0,1,2,4.93V47.4a.79.79,0,0,1-.22.56.76.76,0,0,1-.59.25h-1.75a1.52,1.52,0,0,1-1.15-.49,1.58,1.58,0,0,1-.47-1.13A3.81,3.81,0,0,1,164.1,48a5.9,5.9,0,0,1-2.48.63,7.22,7.22,0,0,1-4.48-1.31,4.28,4.28,0,0,1-1.71-3.58,5.15,5.15,0,0,1,1.91-4.23A7.81,7.81,0,0,1,162.46,38a11.81,11.81,0,0,1,3.25.46,3.46,3.46,0,0,0-3-2.18,5.46,5.46,0,0,0-2.65.62.76.76,0,0,1-.6.08.7.7,0,0,1-.47-.37l-1.27-1.91a.84.84,0,0,1-.1-.67.79.79,0,0,1,.43-.5A10.24,10.24,0,0,1,163.14,32.32ZM161.62,44.9a5.27,5.27,0,0,0,2.17-.5,3.49,3.49,0,0,0,1.69-1.64,7.36,7.36,0,0,0-3-.62,5,5,0,0,0-1.81.3,1.49,1.49,0,0,0-.82.55,1.46,1.46,0,0,0-.19.78.84.84,0,0,0,.27.64,1.39,1.39,0,0,0,.69.36,3.41,3.41,0,0,0,.64.11A3.26,3.26,0,0,0,161.62,44.9Z" transform="translate(-10.39 -9.18)"/><path class="cls-2" d="M179.94,39.94,183,33.68a.79.79,0,0,1,.39-.42,1.08,1.08,0,0,1,.55-.16h3.34a.42.42,0,0,1,.37.16.4.4,0,0,1,0,.42L180,49.5c-.09.16-.18.23-.29.23s-.21-.07-.29-.23l-7.78-15.82a.38.38,0,0,1,0-.42.41.41,0,0,1,.37-.16h3.34a1.14,1.14,0,0,1,.73.29,1.28,1.28,0,0,1,.24.29l3.08,6.26c.09.17.19.26.3.26S179.85,40.11,179.94,39.94Z" transform="translate(-10.39 -9.18)"/><path class="cls-2" d="M204.55,38.22a10.86,10.86,0,0,1,.29,1.4.71.71,0,0,1,0,.29.6.6,0,0,1-.12.24.76.76,0,0,1-.19.21.52.52,0,0,1-.24.13l-10.28,3a7.88,7.88,0,0,0,.75.55,3.93,3.93,0,0,0,3,.32,3.84,3.84,0,0,0,2-1.36.76.76,0,0,1,1-.23l2.27,1.27a.73.73,0,0,1,.41.5.86.86,0,0,1-.12.66A8.15,8.15,0,0,1,199,48.4a8.51,8.51,0,0,1-2.33.33,7.4,7.4,0,0,1-3.92-1c-.33-.21-.64-.44-.95-.66a9.5,9.5,0,0,1-.79-.68c-.23-.23-.44-.45-.63-.67a4.25,4.25,0,0,1-.5-.66l-.38-.6a5.77,5.77,0,0,1-.29-.55c-.09-.2-.14-.35-.18-.46a2.78,2.78,0,0,0-.13-.37,1.92,1.92,0,0,1-.08-.24,7.26,7.26,0,0,1,.68-6.23,8.19,8.19,0,0,1,11.12-3.27,8.19,8.19,0,0,1,2.95,2.75A8,8,0,0,1,204.55,38.22Zm-11.74,1.27,6.58-1.92a4.23,4.23,0,0,0-.78-.55,4,4,0,0,0-1.91-.48,4,4,0,0,0-3.53,2.07A4.52,4.52,0,0,0,192.81,39.49Z" transform="translate(-10.39 -9.18)"/></g></svg>