<svg xmlns="http://www.w3.org/2000/svg" viewBox="0 0 877.72 810.61"><defs><style>.cls-1{fill:#0d7b73;}.cls-2{fill:#fff;stroke:#61b29d;stroke-miterlimit:10;stroke-width:0;}</style></defs><g id="Icons"><path class="cls-1" d="M491.84,768.56c-168.44,0-305.48-137-305.48-305.47s137-305.48,305.48-305.48,305.47,137,305.47,305.48S660.28,768.56,491.84,768.56Zm0-599.42c-162.09,0-293.95,131.86-293.95,294S329.75,757,491.84,757,785.78,625.17,785.78,463.09,653.92,169.14,491.84,169.14Z" transform="translate(-59.71 -157.61)"/><path class="cls-2" d="M624.29,591.06l-53.15-92.72a276.13,276.13,0,0,1-37.43-138.83v-27H450v27a276.13,276.13,0,0,1-37.43,138.83l-53.15,92.72A29.58,29.58,0,0,0,385,635.35l106.88.34,106.88-.34A29.58,29.58,0,0,0,624.29,591.06Z" transform="translate(-59.71 -157.61)"/><path class="cls-1" d="M491.86,641.45l-106.92-.34a35.34,35.34,0,0,1-30.55-52.91l53.15-92.73a270.69,270.69,0,0,0,36.67-136V326.73h95.26v32.78a270.68,270.68,0,0,0,36.65,135.93l53.17,92.76a35.34,35.34,0,0,1-30.55,52.91ZM455.74,338.26v21.25a282.31,282.31,0,0,1-38.21,141.72l-53.14,92.7A23.82,23.82,0,0,0,385,629.59l106.88.34,106.84-.34a23.81,23.81,0,0,0,20.58-35.66L566.13,501.2a282.2,282.2,0,0,1-38.19-141.69V338.26Z" transform="translate(-59.71 -157.61)"/><rect class="cls-2" x="376.22" y="132.87" width="111.83" height="42.01" rx="11.26"/><path class="cls-1" d="M536.5,338.26H447.18a17,17,0,0,1-17-17v-19.5a17,17,0,0,1,17-17H536.5a17,17,0,0,1,17,17v19.5A17,17,0,0,1,536.5,338.26Zm-89.32-42a5.49,5.49,0,0,0-5.49,5.49v19.5a5.49,5.49,0,0,0,5.49,5.49H536.5a5.49,5.49,0,0,0,5.49-5.49v-19.5a5.49,5.49,0,0,0-5.49-5.49Z" transform="translate(-59.71 -157.61)"/><path class="cls-2" d="M549.14,569.32a19,19,0,1,1-19-19A19,19,0,0,1,549.14,569.32Z" transform="translate(-59.71 -157.61)"/><path class="cls-1" d="M530.16,592.92a23.6,23.6,0,1,1,23.6-23.6A23.63,23.63,0,0,1,530.16,592.92Zm0-38a14.38,14.38,0,1,0,14.37,14.37A14.38,14.38,0,0,0,530.16,555Z" transform="translate(-59.71 -157.61)"/><path class="cls-2" d="M528.23,498.13A11.25,11.25,0,1,1,517,486.88,11.25,11.25,0,0,1,528.23,498.13Z" transform="translate(-59.71 -157.61)"/><path class="cls-1" d="M517,513.22a15.09,15.09,0,1,1,15.1-15.09A15.11,15.11,0,0,1,517,513.22Zm0-22.5a7.41,7.41,0,1,0,7.41,7.41A7.42,7.42,0,0,0,517,490.72Z" transform="translate(-59.71 -157.61)"/><path class="cls-2" d="M488.32,540.32a9.14,9.14,0,1,1-9.14-9.14A9.14,9.14,0,0,1,488.32,540.32Z" transform="translate(-59.71 -157.61)"/><path class="cls-1" d="M479.18,553.3a13,13,0,1,1,13-13A13,13,0,0,1,479.18,553.3Zm0-18.28a5.3,5.3,0,1,0,5.3,5.3A5.3,5.3,0,0,0,479.18,535Z" transform="translate(-59.71 -157.61)"/><path class="cls-2" d="M431.37,456.82h0Z" transform="translate(-59.71 -157.61)"/><rect class="cls-1" x="371.67" y="293.45" width="118.47" height="11.53"/><path class="cls-1" d="M108.6,730.34Q87.12,742.54,71.48,715L59.71,694.24l71.39-40.52,24.73,43.56-10,5.68-18.09-31.89-19,10.79,4.82,8.49Q129.5,718.49,108.6,730.34Zm-32.45-30,4.76,8.4q4.77,8.4,9.75,10.74t11.13-1.15q5.89-3.35,6.29-8.77t-5.16-15.18l-4-7Z" transform="translate(-59.71 -157.61)"/><path class="cls-1" d="M147.21,817.25l-30.63-34.91,61.71-54.14,30.63,34.91-8.53,7.48-21.77-24.82-16.8,14.74,20.4,23.26-8.44,7.4-20.4-23.25-19.38,17,21.78,24.82Z" transform="translate(-59.71 -157.61)"/><path class="cls-1" d="M264,833.17a17.45,17.45,0,0,1-12.17,7.27q-7.32.87-15.64-3.68l-.2.27q7.81,7.53,9.24,15a17,17,0,0,1-3.52,14q-6.93,9.13-18,8.86t-23.62-9.79q-13.07-9.9-18.21-19.38l7.08-9.35a54.23,54.23,0,0,0,7.33,10.56,61.43,61.43,0,0,0,9,8.59q17.22,13.07,25.78,1.79,3.93-5.2.83-11.84t-13.26-14.35l-7.87-6,6.51-8.59,7.38,5.6q19.56,14.82,27.46,4.39a9.66,9.66,0,0,0,1.65-9.1q-1.5-5-7.5-9.49a40.08,40.08,0,0,0-10-5.6,42.39,42.39,0,0,0-12.13-2.5l.62-11q15.36.66,29,11,10.4,7.86,13.07,16.88A17.48,17.48,0,0,1,264,833.17Z" transform="translate(-59.71 -157.61)"/><path class="cls-1" d="M385.78,954l-12.87-4,20.93-67.41-34.59-10.74-20.93,67.41-12.82-4,24.34-78.41,60.28,18.71Z" transform="translate(-59.71 -157.61)"/><path class="cls-1" d="M491.66,967.24,485,943.93l-31.31-2.15L444.15,964,430,963l36.31-80.13,14.56,1,25,84.35Zm-9.35-35.09-6.14-22.82c-.46-1.54-1.07-3.94-1.84-7.22s-1.29-5.68-1.56-7.2a125.94,125.94,0,0,1-5.46,14.76l-8.87,20.84Z" transform="translate(-59.71 -157.61)"/><path class="cls-1" d="M596.09,900.49q1.88,12.72-5.46,20.73t-22.72,10.27l-8.45,1.24,4.47,30.39-13.27,2-12-81.22,23.39-3.44q15.23-2.24,23.72,2.87T596.09,900.49Zm-38.27,21.07,7-1q10.23-1.5,14.48-5.76T582.49,903q-1-7-5.81-9.82t-13.84-1.48L553.62,893Z" transform="translate(-59.71 -157.61)"/><path class="cls-1" d="M700.46,926.13l-15.77-18.39-29.34,11.17.61,24.16-13.23,5-.62-88,13.64-5.2,58,66.11Zm-23.2-27.94L662.12,880q-1.59-1.8-4.69-5.78c-2.08-2.66-3.55-4.62-4.44-5.89a123.83,123.83,0,0,1,1.23,15.7l.69,22.63Z" transform="translate(-59.71 -157.61)"/><path class="cls-1" d="M785.69,848.29q13.59,20.64-12.87,38l-19.94,13.12-45.13-68.57,41.84-27.54,6.33,9.62-30.63,20.15,12,18.25,8.16-5.37Q772.48,828.21,785.69,848.29Zm-27.8,34.36,8.07-5.31Q774,872,776,866.91t-1.88-11q-3.74-5.67-9.16-5.7t-14.81,6.15l-6.71,4.41Z" transform="translate(-59.71 -157.61)"/><path class="cls-1" d="M869.87,804.08,837,836.93l-58.06-58,32.83-32.84,8,8-23.34,23.35,15.8,15.8,21.88-21.89,7.94,7.94-21.87,21.89,18.23,18.22L861.81,796Z" transform="translate(-59.71 -157.61)"/><path class="cls-1" d="M937.42,709.69l-7.22,11.38L899,701.23l-20.29,31.95L909.91,753l-7.19,11.33-69.3-44L840.61,709,869,727l20.28-32-28.35-18,7.23-11.38Z" transform="translate(-59.71 -157.61)"/></g></svg>