<svg xmlns="http://www.w3.org/2000/svg" viewBox="0 0 829.28 764.74"><defs><style>.cls-1{fill:#0d7b73;}.cls-2{fill:#fff;}</style></defs><g id="Icons"><path class="cls-1" d="M495,781C335.64,781,206,651.3,206,491.92S335.64,202.86,495,202.86,784.08,332.53,784.08,491.92,654.42,781,495,781Zm0-567.2c-153.37,0-278.15,124.78-278.15,278.15S341.66,770.06,495,770.06,773.18,645.29,773.18,491.92,648.4,213.77,495,213.77Z" transform="translate(-80.35 -202.86)"/><path class="cls-2" d="M564.47,471c-7.62,76.18-27.26,136.59-43.88,134.93S496.68,541.14,504.29,465,531.54,328.37,548.16,330,572.08,394.79,564.47,471Z" transform="translate(-80.35 -202.86)"/><path class="cls-1" d="M123.86,731.42c-10.19,5.74-22.38,3.81-30.57-10.74l-12.94-23L142.07,663l22,39-7.5,4.22-17.06-30.3L123.25,685l8,14.18C139.58,714,134,725.73,123.86,731.42Zm-5-9.52c8.25-4.64,9.44-11.41,4.85-19.57L116.21,689,92.3,702.45l7.83,13.9C104,723.2,110,726.91,118.87,721.9Z" transform="translate(-80.35 -202.86)"/><path class="cls-1" d="M177.1,798.78c-9.08,7.54-21.14,8.16-31.33-4.11l-17.6-21.18L176,733.74,165,720.4l6.62-5.5,17.47,21-20.78,17.26L179.4,766.6C189.8,779.11,186,791.37,177.1,798.78Zm-6.7-8.4c7.37-6.11,7.74-12.65,2.24-19.27L162,758.34,140.77,776l10.94,13.17C156.33,794.74,162.55,796.9,170.4,790.38Z" transform="translate(-80.35 -202.86)"/><path class="cls-1" d="M250.74,825.49c-6.5,7.73-17.53,12.9-32.5.3l-11.47-9.66-18.22,21.65-7.65-6.44,45.54-54.11,19.12,16.1C258.58,804.28,258.75,816,250.74,825.49Zm-7.93-7.1c6.23-7.4,3.65-13.74-2.45-18.88l-11.47-9.66L212,810l11.47,9.66C231.82,826.66,238.36,823.68,242.81,818.39Z" transform="translate(-80.35 -202.86)"/><path class="cls-1" d="M288,883.71c-6.47,10.76-18.34,13.17-33.47,4.08C246.48,883,241,877,238.34,870.5l7.17-5.12c1.89,3.87,5.41,10.82,13.24,15.53,8.12,4.88,15.83,4.43,20.49-3.32,4.49-7.47,1.67-14.13-9.27-20.7l-4.19-2.52,4-6.57,5.1,3.07c8.75,5.26,15.94,4.87,19.88-1.7,3.84-6.38.69-12.49-6.51-16.82-6.2-3.72-11.94-4.07-19.18-4.21l2.3-8.17a40,40,0,0,1,21.59,5.79c11.85,7.12,16.69,17.85,10.44,28.24a15.75,15.75,0,0,1-18.77,7.08C289.52,865.66,293.83,874,288,883.71Z" transform="translate(-80.35 -202.86)"/><path class="cls-1" d="M344.92,907.28l-24.61-9.77-13.71,17-9.19-3.65L345,853.53l12.85,5.1-4.78,74.3L343.26,929Zm.71-8.42,2.81-36.18L325.57,890.9Z" transform="translate(-80.35 -202.86)"/><path class="cls-1" d="M471,946.61l-2.7,21L460,966.54l1.42-12.68-49.36-6.34-1.84,12.63L402,959.09l2.7-21,7.49,1,26.65-60.58,13.92,1.79,10.58,65.37Zm-49.15-6.31,30.79,4L444,888.79Z" transform="translate(-80.35 -202.86)"/><path class="cls-1" d="M548.1,917.11C549.11,938,540,954,519.37,955S488,941,487,920.06s8.23-36.92,28.83-37.91S547.09,896.19,548.1,917.11Zm-10.62.51c-.78-16.14-7-28.08-21.24-27.4s-19.37,13.18-18.6,29.33,7.11,28.08,21.34,27.39S538.25,933.77,537.48,917.62Z" transform="translate(-80.35 -202.86)"/><path class="cls-1" d="M609.26,871.42v9.15a33.28,33.28,0,0,0-17.68-1c-15.67,3.52-17.93,18.19-14.83,32,3.91,17.44,14.8,26.11,28,23.15,6.85-1.54,12.34-5.71,14.89-7.92l3.72,8.32c-4.21,3.56-11,6.18-17.05,7.53-22,4.94-35-7.06-39.82-28.33-3.85-17.12-1.69-37.12,24.36-43A36.63,36.63,0,0,1,609.26,871.42Z" transform="translate(-80.35 -202.86)"/><path class="cls-1" d="M665.1,846.76l3.17,8-18.88,7.49,22.94,57.82L663,923.77,640.1,865.94l-18.88,7.49-3.17-8Z" transform="translate(-80.35 -202.86)"/><path class="cls-1" d="M729.86,867.6,707,880.89l4.84,21.28-8.56,5-15.56-72.84,12-6.94L755,877.1l-9.11,5.28Zm-6.17-5.76L697,837.24l8,35.43Z" transform="translate(-80.35 -202.86)"/><path class="cls-1" d="M802.41,814.51c7.49,9,6.43,19.84-6.55,30.67l-19.6,16.34L730.9,807.13l19-15.8c12.74-10.62,22.09-7.21,27.88-.27,5.59,6.7,4.08,15,.25,18.9C787.08,804.59,796.21,807.08,802.41,814.51Zm-45.1,8.68,10.21-8.51c6.77-5.66,7-11.67,3.2-16.25-4.49-5.39-9.28-5.82-15.9-.31L744,807.18Zm35.82-2.87C788.7,815,783,812.68,774,820.24l-11.27,9.4,15.86,19,10.21-8.51C796.44,833.75,799.12,827.5,793.13,820.32Z" transform="translate(-80.35 -202.86)"/><path class="cls-1" d="M866.48,772.19l-7.7,8.94L823,772l-7.37,8.39,25.13,21.66-6.52,7.57-53.65-46.24,6.53-7.57,22,18.95,7.22-8.37-11.58-31,7.22-8.38,12.36,35.5Z" transform="translate(-80.35 -202.86)"/><path class="cls-1" d="M883,708.3,869.29,731l14.48,16.34-5.12,8.46L830,699.36l7.16-11.83,72.48,17-5.45,9Zm-8.18-2.09-35.22-8.75,24,27.22Z" transform="translate(-80.35 -202.86)"/><path class="cls-1" d="M415,606.52A34.49,34.49,0,1,1,449.52,572,34.53,34.53,0,0,1,415,606.52ZM415,549a23,23,0,1,0,23,23A23,23,0,0,0,415,549Z" transform="translate(-80.35 -202.86)"/><path class="cls-1" d="M610.46,606.52A34.49,34.49,0,1,1,645,572,34.52,34.52,0,0,1,610.46,606.52Zm0-57.48a23,23,0,1,0,23,23A23,23,0,0,0,610.46,549Z" transform="translate(-80.35 -202.86)"/><circle class="cls-1" cx="530.11" cy="369.17" r="11.5"/><circle class="cls-1" cx="334.68" cy="369.17" r="11.5"/><path class="cls-1" d="M656.45,572a5.75,5.75,0,0,1,0-11.5,5.75,5.75,0,0,0,5.75-5.74v-58.1a8.66,8.66,0,0,0-2-5.46l-44.17-54a8.6,8.6,0,0,0-6.68-3.16H564.48V560.53a5.75,5.75,0,0,1,0,11.5h-5.75a5.75,5.75,0,0,1-5.75-5.75V428.33a5.76,5.76,0,0,1,5.75-5.75H609.4A20,20,0,0,1,625,430l44.17,54a20.13,20.13,0,0,1,4.55,12.74v58.1A17.26,17.26,0,0,1,656.45,572Z" transform="translate(-80.35 -202.86)"/><path class="cls-1" d="M642.94,503.05H581.72a5.74,5.74,0,0,1-5.74-5.74v-46a5.75,5.75,0,0,1,5.74-5.75h23.57a5.78,5.78,0,0,1,4.45,2.11l37.65,46a5.74,5.74,0,0,1-4.45,9.39Zm-55.47-11.49h43.34l-28.24-34.49h-15.1Z" transform="translate(-80.35 -202.86)"/><path class="cls-1" d="M667.94,549H645a5.76,5.76,0,0,1-5.75-5.75v-23a5.75,5.75,0,0,1,5.75-5.75h23a5.75,5.75,0,0,1,0,11.5H650.7v11.49h17.24a5.75,5.75,0,0,1,0,11.5Z" transform="translate(-80.35 -202.86)"/><path class="cls-1" d="M558.73,572h-92a5.75,5.75,0,0,1,0-11.5h92a5.75,5.75,0,0,1,0,11.5Z" transform="translate(-80.35 -202.86)"/><path class="cls-1" d="M363.3,572H351.8a5.74,5.74,0,0,1-5.74-5.75v-69a5.75,5.75,0,1,1,11.49,0v63.22h5.75a5.75,5.75,0,0,1,0,11.5Z" transform="translate(-80.35 -202.86)"/><path class="cls-1" d="M558.73,434.08a5.76,5.76,0,0,1-5.75-5.75V411.09H357.55v11.49a5.75,5.75,0,1,1-11.49,0V405.34a5.74,5.74,0,0,1,5.74-5.75H558.73a5.74,5.74,0,0,1,5.75,5.75v23A5.75,5.75,0,0,1,558.73,434.08Z" transform="translate(-80.35 -202.86)"/><path class="cls-1" d="M455.27,531.79a5.76,5.76,0,0,1-4.07-1.68L411,489.87a5.73,5.73,0,0,1,0-8.12l17.24-17.25a5.76,5.76,0,0,1,8.13,0l18.93,18.93,41.92-41.92a5.76,5.76,0,0,1,8.13,0l17.24,17.24a5.74,5.74,0,0,1,0,8.13l-63.23,63.23A5.72,5.72,0,0,1,455.27,531.79Zm-32.11-46,32.11,32.11,55.1-55.1-9.12-9.12-41.92,41.92a5.74,5.74,0,0,1-8.13,0L432.28,476.7Z" transform="translate(-80.35 -202.86)"/><path class="cls-1" d="M392,480.06h-69a5.75,5.75,0,0,1,0-11.49h69a5.75,5.75,0,1,1,0,11.49Z" transform="translate(-80.35 -202.86)"/><path class="cls-1" d="M409.28,451.32h-69a5.75,5.75,0,1,1,0-11.49h69a5.75,5.75,0,1,1,0,11.49Z" transform="translate(-80.35 -202.86)"/></g></svg>