<svg xmlns="http://www.w3.org/2000/svg" viewBox="0 0 822.43 751.22"><defs><style>.cls-1{fill:#0d7b73;}.cls-2{fill:#fff;}</style></defs><g id="Icons"><path class="cls-1" d="M509.41,776.1c-159.5,0-289.26-129.76-289.26-289.26S349.91,197.58,509.41,197.58,798.67,327.34,798.67,486.84,668.91,776.1,509.41,776.1Zm0-567.61c-153.49,0-278.35,124.87-278.35,278.35S355.92,765.18,509.41,765.18,787.75,640.32,787.75,486.84,662.89,208.49,509.41,208.49Z" transform="translate(-101.34 -197.58)"/><path class="cls-2" d="M548.5,411.24c0,51.19-38.64,92.68-38.64,92.68s-38.64-41.49-38.64-92.68,38.64-92.68,38.64-92.68S548.5,360.05,548.5,411.24Z" transform="translate(-101.34 -197.58)"/><path class="cls-1" d="M509.86,511.93l-4-4.29c-1.64-1.76-40.1-43.67-40.1-96.4s38.46-94.64,40.1-96.4l4-4.29,4,4.29c1.64,1.76,40.1,43.67,40.1,96.4s-38.46,94.64-40.1,96.4Zm0-184.91c-9.6,12-33.18,45.51-33.18,84.22s23.57,72.22,33.18,84.22c9.6-12,33.18-45.51,33.18-84.22S519.47,339,509.86,327Z" transform="translate(-101.34 -197.58)"/><path class="cls-2" d="M608.72,512.7c-43.06,27.68-98.86,17.62-98.86,17.62s14-54.94,57.07-82.62,98.86-17.61,98.86-17.61S651.77,485,608.72,512.7Z" transform="translate(-101.34 -197.58)"/><path class="cls-1" d="M534.59,537.62a155.7,155.7,0,0,1-25.7-1.93l-5.77-1,1.45-5.68c.6-2.33,15.06-57.34,59.41-85.86s100.4-18.82,102.78-18.4l5.76,1-1.45,5.69c-.59,2.32-15.05,57.34-59.4,85.86C585.59,534.06,555.47,537.62,534.59,537.62ZM517,525.75c15.32,1.56,56.23,3.29,88.78-17.64s48-58.86,52.91-73.45c-15.33-1.58-56.24-3.3-88.79,17.64S521.91,511.16,517,525.75Z" transform="translate(-101.34 -197.58)"/><path class="cls-2" d="M410.85,513.66c-43.31-27.29-57.82-82.1-57.82-82.1s55.7-10.56,99,16.72,57.82,82.1,57.82,82.1S454.16,541,410.85,513.66Z" transform="translate(-101.34 -197.58)"/><path class="cls-1" d="M483.53,537.9c-20.8,0-50-3.53-75.59-19.62-44.61-28.11-59.57-83-60.19-85.32l-1.5-5.67L352,426.2c2.37-.45,58.33-10.64,102.94,17.47s59.57,83,60.19,85.31l1.5,5.67-5.76,1.09A159.2,159.2,0,0,1,483.53,537.9ZM413.76,509c32.74,20.63,73.63,18.53,88.94,16.83-5.06-14.54-20.82-52.34-53.57-73s-73.67-18.56-88.94-16.83c5.06,14.54,20.82,52.34,53.57,73Z" transform="translate(-101.34 -197.58)"/><path class="cls-1" d="M509.86,660.58a5.47,5.47,0,0,1-5.46-5.46V501.38a5.46,5.46,0,0,1,10.92,0V655.12A5.47,5.47,0,0,1,509.86,660.58Z" transform="translate(-101.34 -197.58)"/><path class="cls-1" d="M169,702l-48.27,26.45-3.74-6.82,21.77-11.94L126.86,688.1,105.08,700l-3.74-6.83,48.27-26.45,3.74,6.82-20.61,11.3,11.85,21.63,20.62-11.3Z" transform="translate(-101.34 -197.58)"/><path class="cls-1" d="M164.44,762.9l-12.32-16.52-16,5.66-4.61-6.17,54.93-18.57,6.43,8.62-33.49,47.3-4.9-6.57Zm3.91-5.29L185,734.78l-26.68,9.37Z" transform="translate(-101.34 -197.58)"/><path class="cls-1" d="M233.19,781.66l-4.88,4.61-10.85-11.5L182.25,808l-5.34-5.65,35.21-33.24-10.86-11.5,4.88-4.6Z" transform="translate(-101.34 -197.58)"/><path class="cls-1" d="M272,814.6l-43.24,24.15c-7.38,4.1-12.22,2-16.88-1.31l1.52-7c5.53,4.48,9,4.16,15.15.41l-2.11-1.74,12.87-41.59,6.31,5.23-11,35,31.28-18.15Z" transform="translate(-101.34 -197.58)"/><path class="cls-1" d="M306.53,856.77c-4.21,6.64-12.17,11.79-25,3.64l-9.85-6.25-11.79,18.6-6.57-4.17,29.46-46.49,16.43,10.41C310.35,839.6,311.71,848.59,306.53,856.77Zm-6.86-4.64c4-6.36,1.38-11-3.87-14.31l-9.86-6.24L275,848.85l9.86,6.24C292.06,859.66,296.79,856.67,299.67,852.13Z" transform="translate(-101.34 -197.58)"/><path class="cls-1" d="M332.28,894.24l-18.62-8.84-11.52,12.5-6.95-3.3L335,852.49l9.72,4.61-7.47,57.47-7.4-3.51Zm1-6.5,4-28-19.2,20.77Z" transform="translate(-101.34 -197.58)"/><path class="cls-1" d="M395.84,934.19l-8.37-2.64.71-37.11.42-13.93L381,892.07l-20.86,30.82-8.21-2.6,33.69-48,10.33,3.27Z" transform="translate(-101.34 -197.58)"/><path class="cls-1" d="M464.59,891.1l-9.12,54.28-7.67-1.29,4.11-24.49-24.32-4.09L423.48,940l-7.68-1.29,9.13-54.28,7.67,1.29-3.9,23.18L453,913l3.9-23.18Z" transform="translate(-101.34 -197.58)"/><path class="cls-1" d="M520.61,893.69l-1.43,55.11-7.78-.2.77-29.46,1.15-16-22.44,45-10.26-.27L482,892.69l7.78.2-.76,29.46-1.16,16,22.44-45Z" transform="translate(-101.34 -197.58)"/><path class="cls-1" d="M597.13,887.24l-.43,7.11A26,26,0,0,0,583,892.72c-12.33,2-14.77,13.3-13,24.16,2.23,13.73,10.28,21,20.65,19.29a28.06,28.06,0,0,0,12-5.46l2.5,6.64c-3.44,2.57-8.86,4.28-13.6,5-17.32,2.81-26.9-7.12-29.62-23.86-2.18-13.48.43-28.92,20.93-32.25A28.63,28.63,0,0,1,597.13,887.24Z" transform="translate(-101.34 -197.58)"/><path class="cls-1" d="M667.56,904.23c2.72,8.77-.42,17.63-12.27,21.31l-20.47,6.36-14.37-46.24-12.88,4-2-6.41L625.89,877,632.13,897l13-4C657.19,889.25,664.88,895.61,667.56,904.23Zm-8,2.32c-2.21-7.12-6.8-9.33-13.2-7.34L634,903l6.38,20.55,12.73-4C658.48,918,661.88,914.13,659.53,906.55Z" transform="translate(-101.34 -197.58)"/><path class="cls-1" d="M702.68,848.5l1.55,7a26,26,0,0,0-13.6,2.22c-11.3,5.34-10.52,16.87-5.81,26.82,5.94,12.57,15.68,17.31,25.18,12.81a28.09,28.09,0,0,0,10-8.55l4.24,5.68c-2.59,3.43-7.33,6.58-11.67,8.63-15.86,7.5-27.82.61-35.07-14.73-5.83-12.35-7.6-27.9,11.18-36.78A28.79,28.79,0,0,1,702.68,848.5Z" transform="translate(-101.34 -197.58)"/><path class="cls-1" d="M743.19,820.64l3.58,5.66-13.35,8.47,25.92,40.9-6.57,4.16-25.92-40.9L713.5,847.4l-3.59-5.67Z" transform="translate(-101.34 -197.58)"/><path class="cls-1" d="M796.79,827.84l-16,13,6.29,15.78-6,4.85L760.35,807.3l8.36-6.77,48.59,31.58-6.37,5.16Zm-5.43-3.69-23.48-15.71,10.42,26.28Z" transform="translate(-101.34 -197.58)"/><path class="cls-1" d="M847.79,779.28c6.62,6.25,6.81,14.74-2.22,24.31L831.93,818,791.84,780.2l13.18-14c8.86-9.39,16.41-7.61,21.53-2.79,4.93,4.66,4.54,11.23,1.94,14.59C835,773,842.31,774.11,847.79,779.28Zm-34,10.88,7.1-7.52c4.71-5,4.34-9.67,1-12.85-4-3.75-7.72-3.64-12.32,1.23l-7.55,8Zm27.41-5.53c-3.91-3.7-8.51-5-14.82,1.71l-7.84,8.31,14,13.24,7.1-7.53C845,794.71,846.45,789.63,841.15,784.63Z" transform="translate(-101.34 -197.58)"/><path class="cls-1" d="M894.74,741.8l-5.39,7.44L861,744.54l-5.16,7,20.92,15.14L872.17,773l-44.66-32.33,4.57-6.3,18.3,13.25,5-7-11-23.31,5-7,11.93,26.73Z" transform="translate(-101.34 -197.58)"/><path class="cls-1" d="M875.2,664.22l48.58,26.07-3.68,6.86-26-13.94L880.33,675l30.06,40.27-4.85,9L857,698.21l3.68-6.85,26,13.93,13.79,8.25-30-40.27Z" transform="translate(-101.34 -197.58)"/></g></svg>